<svg width="4360" height="1173" viewBox="0 0 4360 1173" fill="none" xmlns="http://www.w3.org/2000/svg">
<path d="M2017.41 747.217H1891.05L1833.34 633.793L1695.73 362.18L1558.12 633.793L1500.41 747.217H1374.05L1431.45 633.793L1695.73 112.79L1960.02 633.793L2017.41 747.217Z" fill="#FF3100"/>
<path d="M2569.44 633.793V746.818H2249.66C2218.96 746.822 2188.67 739.737 2161.12 726.109C2127.55 709.277 2099.28 683.439 2079.43 651.457C2059.57 619.474 2048.92 582.594 2048.64 544.901V112.79H2161.12V556.212C2163.73 575.825 2172.68 594.036 2186.58 608.051C2200.48 622.065 2218.58 631.108 2238.09 633.793H2569.44Z" fill="#FF3100"/>
<path d="M2659.25 746.978V112.79H2771.82V746.819L2659.25 746.978Z" fill="#FF3100"/>
<path d="M2974.66 284.201V342.984H3380.68V456.01H2974.66V575.487C2974.64 590.91 2980.7 605.712 2991.52 616.655C3002.34 627.597 3017.03 633.788 3032.37 633.872H3493.17V747.217H3032.37C2987.19 747.153 2943.87 729.061 2911.96 696.918C2880.04 664.774 2862.14 621.211 2862.18 575.806V284.201C2862.14 238.796 2880.04 195.232 2911.96 163.089C2943.87 130.945 2987.19 112.853 3032.37 112.79L3493.17 112.79V225.816H3032.37C3017.03 225.9 3002.34 232.091 2991.52 243.033C2980.7 253.976 2974.64 268.778 2974.66 284.201Z" fill="#FF3100"/>
<path d="M4191.85 112.79L4134.54 226.214L3870.17 747.376L3605.89 226.373L3548.5 112.79H3674.85L3732.56 226.214L3870.17 497.827L4007.79 226.214L4065.49 112.79H4191.85Z" fill="#FF3100"/>
<path d="M4246.55 746.978V112.79H4359.19V746.819L4246.55 746.978Z" fill="#FF3100"/>
<path d="M1473.49 1021.7H1402.71L1386.85 1056.26H1377.58L1433.7 933.601H1442.66L1498.78 1056.26H1489.19L1473.49 1021.7ZM1470.16 1014.21L1438.06 943.398L1406.35 1014.21H1470.16Z" fill="white" stroke="#1E1E1E"/>
<path fill-rule="evenodd" clip-rule="evenodd" d="M1429.95 927.77H1446.4L1507.86 1062.09H1485.43L1469.73 1027.53H1406.44L1390.59 1062.09H1368.49L1429.95 927.77ZM1438.09 957.59L1415.35 1008.38H1461.12L1438.09 957.59Z" fill="white" stroke="#1E1E1E"/>
<path d="M1801.74 933.601V1056.26H1794.45L1711.22 949.69V1056.26H1702.26V933.601H1710.19L1793.18 1040.1V933.601H1801.74Z" fill="white" stroke="#1E1E1E"/>
<path fill-rule="evenodd" clip-rule="evenodd" d="M1696.43 927.77H1713.04L1787.35 1023.13V927.77H1807.58V1062.09H1791.61L1717.05 966.628V1062.09H1696.43V927.77Z" fill="white" stroke="#1E1E1E"/>
<path d="M2101.15 1021.7H2030.29L2014.43 1056.26H2004.84L2060.96 933.601H2069.84L2126.04 1056.26H2116.45L2101.15 1021.7ZM2097.82 1014.21L2066.12 943.398L2034.41 1014.21H2097.82Z" fill="white" stroke="#1E1E1E"/>
<path fill-rule="evenodd" clip-rule="evenodd" d="M2057.22 927.77H2073.58L2135.12 1062.09H2112.65L2097.35 1027.53H2034.02L2018.17 1062.09H1995.76L2057.22 927.77ZM2066.11 957.664L2043.4 1008.38H2088.82L2066.11 957.664Z" fill="white" stroke="#1E1E1E"/>
<path d="M2329.92 933.601H2338.8V1048.22H2409.11V1056.19H2329.84L2329.92 933.601Z" fill="white" stroke="#1E1E1E"/>
<path fill-rule="evenodd" clip-rule="evenodd" d="M2324.09 927.77H2344.63V1042.39H2414.94V1062.02H2324.01L2324.09 927.77Z" fill="white" stroke="#1E1E1E"/>
<path d="M2638.04 1014.05V1056.26H2629.16V1014.05L2580.02 933.601H2589.77L2633.92 1005.77L2677.99 933.601H2687.27L2638.04 1014.05Z" fill="white" stroke="#1E1E1E"/>
<path fill-rule="evenodd" clip-rule="evenodd" d="M2569.63 927.77H2593.04L2633.92 994.587L2674.73 927.77H2697.67L2643.88 1015.69V1062.09H2623.34V1015.69L2569.63 927.77Z" fill="white" stroke="#1E1E1E"/>
<path d="M2913.58 941.645H2869.66V933.68H2966.45V941.645H2922.54V1056.26H2913.58V941.645Z" fill="white" stroke="#1E1E1E"/>
<path fill-rule="evenodd" clip-rule="evenodd" d="M2863.83 927.848H2972.28V947.474H2928.37V1062.09H2907.75V947.474H2863.83V927.848Z" fill="white" stroke="#1E1E1E"/>
<path d="M3169.78 933.601H3178.66V1056.26H3169.78V933.601Z" fill="white" stroke="#1E1E1E"/>
<path fill-rule="evenodd" clip-rule="evenodd" d="M3163.95 927.77H3184.49V1062.09H3163.95V927.77Z" fill="white" stroke="#1E1E1E"/>
<path d="M3421.86 1049.02C3412.42 1043.82 3404.58 1036.14 3399.18 1026.79C3393.79 1017.05 3390.96 1006.08 3390.96 994.932C3390.96 983.782 3393.79 972.816 3399.18 963.071C3404.61 953.742 3412.44 946.063 3421.86 940.848C3431.76 935.409 3442.91 932.664 3454.2 932.883C3462.53 932.784 3470.81 934.242 3478.61 937.184C3485.83 939.897 3492.34 944.228 3497.64 949.849L3492.09 955.663C3487.15 950.81 3481.27 947.016 3474.83 944.51C3468.38 942.005 3461.5 940.84 3454.59 941.087C3444.85 940.945 3435.23 943.361 3426.69 948.097C3418.47 952.613 3411.65 959.308 3406.95 967.452C3402.27 975.891 3399.82 985.391 3399.82 995.051C3399.82 1004.71 3402.27 1014.21 3406.95 1022.65C3411.6 1030.83 3418.44 1037.54 3426.69 1042.01C3435.23 1046.74 3444.85 1049.16 3454.59 1049.02C3461.51 1049.24 3468.4 1048.05 3474.85 1045.52C3481.29 1042.99 3487.16 1039.16 3492.09 1034.28L3497.64 1040.09C3492.31 1045.76 3485.78 1050.14 3478.53 1052.92C3470.76 1055.87 3462.51 1057.35 3454.2 1057.3C3442.88 1057.42 3431.73 1054.57 3421.86 1049.02Z" fill="white" stroke="#1E1E1E"/>
<path fill-rule="evenodd" clip-rule="evenodd" d="M3454.22 927.054C3441.95 926.831 3429.83 929.825 3419.05 935.739L3419.03 935.749C3408.7 941.476 3400.1 949.906 3394.15 960.143L3394.09 960.249C3388.21 970.859 3385.13 982.797 3385.13 994.933C3385.13 1007.07 3388.21 1019.01 3394.09 1029.62L3394.14 1029.71C3400.06 1039.97 3408.67 1048.41 3419.03 1054.11C3429.77 1060.15 3441.9 1063.26 3454.21 1063.13C3463.23 1063.18 3472.17 1061.57 3480.6 1058.37L3480.62 1058.36C3488.69 1055.27 3495.96 1050.39 3501.89 1044.09L3505.67 1040.07L3492.21 1025.96L3487.99 1030.14C3483.62 1034.46 3478.43 1037.85 3472.72 1040.09C3467.01 1042.34 3460.91 1043.39 3454.79 1043.19L3454.65 1043.19L3454.51 1043.19C3445.78 1043.31 3437.17 1041.15 3429.52 1036.91L3429.47 1036.88C3422.19 1032.94 3416.15 1027.02 3412.04 1019.8C3407.85 1012.23 3405.65 1003.71 3405.65 995.053C3405.65 986.397 3407.85 977.885 3412.03 970.323C3416.19 963.119 3422.24 957.201 3429.5 953.207L3429.52 953.196C3437.17 948.954 3445.78 946.791 3454.51 946.918L3454.66 946.92L3454.81 946.915C3460.92 946.697 3467.01 947.728 3472.72 949.946C3478.43 952.165 3483.63 955.525 3488.01 959.825L3492.23 963.969L3505.68 949.874L3501.88 945.85C3495.98 939.586 3488.72 934.756 3480.67 931.73C3472.22 928.543 3463.25 926.957 3454.22 927.054Z" fill="white" stroke="#1E1E1E"/>
<path d="M3714.68 1052.68C3707.54 1050.2 3701.06 1046.12 3695.74 1040.73L3699.78 1034.04C3704.69 1038.99 3710.61 1042.8 3717.14 1045.19C3724.44 1048.06 3732.21 1049.52 3740.05 1049.49C3749.31 1050.15 3758.53 1047.81 3766.37 1042.8C3769.17 1040.87 3771.45 1038.28 3773.01 1035.25C3774.58 1032.22 3775.37 1028.85 3775.32 1025.44C3775.44 1023.04 3775.08 1020.64 3774.27 1018.39C3773.45 1016.13 3772.19 1014.06 3770.57 1012.3C3767.29 1008.95 3763.31 1006.39 3758.91 1004.81C3752.74 1002.61 3746.44 1000.78 3740.05 999.314C3732.75 997.664 3725.57 995.508 3718.57 992.862C3713.22 990.861 3708.47 987.515 3704.77 983.144C3700.78 978.184 3698.74 971.915 3699.07 965.541C3699.14 959.682 3700.94 953.976 3704.22 949.133C3707.73 943.855 3712.72 939.75 3718.57 937.344C3726.23 934.183 3734.47 932.69 3742.74 932.964C3749.48 932.955 3756.19 933.948 3762.64 935.911C3768.65 937.658 3774.35 940.346 3779.52 943.876L3776.19 951.124C3771.37 947.623 3766.02 944.933 3760.34 943.159C3754.71 941.443 3748.86 940.557 3742.98 940.531C3733.91 939.903 3724.89 942.281 3717.3 947.301C3714.54 949.352 3712.32 952.033 3710.8 955.122C3709.28 958.211 3708.52 961.619 3708.58 965.063C3708.46 967.462 3708.82 969.861 3709.63 972.118C3710.45 974.375 3711.71 976.445 3713.33 978.206C3716.61 981.552 3720.59 984.111 3724.99 985.693C3731.22 987.927 3737.57 989.815 3744.01 991.348C3751.29 993.073 3758.47 995.227 3765.49 997.8C3770.73 999.844 3775.41 1003.12 3779.13 1007.36C3783.14 1012.19 3785.18 1018.36 3784.84 1024.64C3784.83 1030.32 3783.15 1035.86 3780 1040.57C3776.36 1045.88 3771.22 1049.99 3765.26 1052.36C3757.5 1055.47 3749.19 1056.97 3740.84 1056.74C3731.94 1057.05 3723.07 1055.68 3714.68 1052.68Z" fill="white" stroke="#1E1E1E"/>
<path fill-rule="evenodd" clip-rule="evenodd" d="M3742.83 927.134C3733.76 926.849 3724.74 928.492 3716.34 931.955C3709.43 934.802 3703.52 939.653 3699.38 945.885C3695.48 951.639 3693.35 958.407 3693.24 965.357C3692.87 973.121 3695.36 980.754 3700.23 986.804L3700.32 986.909C3704.66 992.039 3710.23 995.969 3716.51 998.32C3723.77 1001.06 3731.2 1003.29 3738.75 1005C3744.92 1006.41 3750.99 1008.18 3756.95 1010.3C3760.48 1011.57 3763.69 1013.63 3766.34 1016.31C3767.41 1017.49 3768.24 1018.87 3768.78 1020.37C3769.34 1021.9 3769.58 1023.52 3769.5 1025.15L3769.49 1025.33L3769.49 1025.52C3769.53 1027.98 3768.95 1030.4 3767.83 1032.58C3766.72 1034.73 3765.11 1036.57 3763.14 1037.95C3756.38 1042.24 3748.43 1044.25 3740.46 1043.68L3740.24 1043.66L3740.03 1043.67C3732.93 1043.69 3725.89 1042.37 3719.27 1039.77L3719.15 1039.72C3713.42 1037.62 3708.22 1034.28 3703.92 1029.94L3698.65 1024.63L3688.4 1041.6L3691.59 1044.83C3697.53 1050.84 3704.77 1055.41 3712.75 1058.18C3721.76 1061.4 3731.3 1062.89 3740.86 1062.58C3749.95 1062.79 3758.98 1061.16 3767.42 1057.78C3774.46 1054.97 3780.51 1050.13 3784.81 1043.87L3784.85 1043.82C3788.61 1038.19 3790.63 1031.57 3790.66 1024.8C3791.04 1017.11 3788.53 1009.56 3783.61 1003.63L3783.51 1003.51C3779.18 998.576 3773.72 994.753 3767.61 992.37L3767.5 992.327C3760.25 989.675 3752.86 987.454 3745.36 985.677C3739.13 984.194 3732.99 982.368 3726.96 980.207C3723.42 978.934 3720.21 976.879 3717.56 974.193C3716.49 973.016 3715.66 971.638 3715.12 970.135C3714.56 968.606 3714.32 966.981 3714.4 965.355L3714.41 965.162L3714.41 964.969C3714.37 962.447 3714.92 959.953 3716.03 957.693C3717.12 955.48 3718.7 953.557 3720.65 952.072C3727.15 947.822 3734.85 945.813 3742.58 946.348L3742.77 946.361L3742.95 946.362C3748.26 946.386 3753.54 947.184 3758.62 948.731C3763.69 950.316 3768.47 952.718 3772.77 955.843L3778.52 960.023L3786.88 941.835L3782.81 939.06C3777.13 935.191 3770.89 932.243 3764.3 930.324C3757.34 928.209 3750.11 927.134 3742.83 927.134Z" fill="white" stroke="#1E1E1E"/>
<path d="M0 187.981C0 84.1618 84.1619 0 187.981 0H985.019C1088.84 0 1173 84.1619 1173 187.981V985.019C1173 1088.84 1088.84 1173 985.019 1173H187.981C84.1618 1173 0 1088.84 0 985.019V187.981Z" fill="#FF3100"/>
<path d="M981.446 346.317H886.081L842.527 431.993L738.666 637.157L634.806 431.993L591.251 346.317H495.886L539.202 431.993L738.666 825.535L938.131 431.993L981.446 346.317Z" fill="white"/>
<path d="M686.662 825.532H591.297L547.743 739.857L443.882 534.692L340.022 739.857L296.467 825.532H201.102L244.417 739.857L443.882 346.314L643.347 739.857L686.662 825.532Z" fill="white"/>
</svg>
